<?xml version="1.0" encoding="UTF-8"?>
<svg viewBox="0 0 400 400" version="1.1" xmlns="http://www.w3.org/2000/svg" xmlns:xlink="http://www.w3.org/1999/xlink">
    <!-- Generator: Sketch 57 (83077) - https://sketch.com -->
    <title>hakemus odottaa hyväksyntää</title>
    <desc>Created with Sketch.</desc>
    <defs>
        <circle id="path-1" cx="200" cy="200" r="200"></circle>
        <path d="M229.791281,238.095482 L316.041902,287.890916 L325.046281,293.117482 L320.817078,300.485922 C319.442081,302.880675 316.386094,303.70735 313.991341,302.332353 C313.984428,302.328384 313.977526,302.324399 313.970632,302.320397 L227.483027,252.110246 C225.102949,250.728498 224.286954,247.683123 225.657304,245.296464 L229.791281,238.095482 Z M355.04839,130.145767 C355.223407,130.246813 355.394398,130.35097 355.561365,130.458239 C355.737115,130.548838 355.912499,130.64466 356.087515,130.745706 C379.880474,144.482577 376.367558,172.757456 371.381346,181.393828 C366.395135,190.0302 362.727881,192.155339 355.393375,196.405617 C348.058869,200.655895 333.988827,202.835593 330.577208,208.74469 C327.165589,214.653787 330.556815,221.460202 331.848582,231.902984 C332.480956,237.01516 332.009132,241.380896 330.433111,245.00019 L351.367565,257.086617 C352.297579,257.62356 352.989838,258.414161 353.407409,259.320575 L353.422849,259.355446 C354.078385,260.780182 354.057408,262.489972 353.217219,263.952246 L336.180844,293.490805 C334.805107,295.885138 331.747524,296.70589 329.35544,295.326254 C329.35414,295.325505 329.35284,295.324754 329.353793,295.320107 L314.129,286.521 L223.488321,234.190252 C221.096858,232.80954 220.277482,229.751588 221.658194,227.360125 L238.713588,197.819316 L238.767,197.73 L238.851602,197.590192 C240.278204,195.347831 243.232882,194.609302 245.558519,195.950614 C245.559819,195.951364 245.561119,195.952114 245.560166,195.956761 L268.943,209.47 L269.193949,209.14005 C271.538928,206.124692 274.995306,203.649987 279.563085,201.715938 C289.252683,197.61325 296.842823,197.14693 300.254442,191.237833 C303.666061,185.328736 298.518713,172.053873 298.532309,163.576865 C298.545905,155.099858 298.552702,150.861354 303.538914,142.224981 C308.525126,133.588609 331.255432,116.408896 355.04839,130.145767 Z" id="path-3"></path>
        <linearGradient x1="50%" y1="0%" x2="50%" y2="100%" id="linearGradient-5">
            <stop stop-color="#000000" offset="0%"></stop>
            <stop stop-color="#000000" stop-opacity="0.152289117" offset="100%"></stop>
        </linearGradient>
    </defs>
    <g id="hakemus-odottaa-hyväksyntää" stroke="none" stroke-width="1" fill="none" fill-rule="evenodd">
        <g id="Combined-Shape">
            <mask id="mask-2" fill="white">
                <use xlink:href="#path-1"></use>
            </mask>
            <use id="Mask" fill="#E5EDFF" xlink:href="#path-1"></use>
            <path d="M96.0526316,165 C86.638879,165.010018 79.0100253,172.633221 79,182.04 L79,397.88 C79.0100253,407.286779 86.638879,414.909982 96.0526316,414.92 L277.947368,414.92 C287.361121,414.909982 294.989975,407.286779 295,397.88 L295,182.04 C294.989975,172.633221 287.361121,165.010018 277.947368,165 L96.0526316,165 Z" stroke="#0041DC" stroke-width="3" fill="#FFFFFF" fill-rule="nonzero" mask="url(#mask-2)"></path>
        </g>
        <path d="M126,159.125 C126,156.018398 128.543837,153.5 131.681818,153.5 L148.727273,153.5 L148.727273,136.625 C148.727273,133.518398 151.271109,131 154.409091,131 L222.590909,131 C225.728891,131 228.272727,133.518398 228.272727,136.625 L228.272727,153.5 L245.318182,153.5 C248.456163,153.5 251,156.018398 251,159.125 L251,170.375 C251,173.481602 248.456163,176 245.318182,176 L131.681818,176 C128.543837,176 126,173.481602 126,170.375 L126,159.125 Z" id="Path" stroke="#0041DC" stroke-width="3" fill="#FFFFFF" fill-rule="nonzero"></path>
        <rect id="Rectangle" fill="#9AB2F1" x="111" y="227" width="155" height="7" rx="3.5"></rect>
        <rect id="Rectangle-Copy-9" fill="#9AB2F1" x="111" y="308" width="155" height="7" rx="3.5"></rect>
        <rect id="Rectangle-Copy-7" fill="#9AB2F1" x="111" y="254" width="155" height="7" rx="3.5"></rect>
        <rect id="Rectangle-Copy-10" fill="#9AB2F1" x="111" y="335" width="155" height="7" rx="3.5"></rect>
        <rect id="Rectangle-Copy-8" fill="#9AB2F1" x="111" y="281" width="116" height="7" rx="3.5"></rect>
        <rect id="Rectangle-Copy-11" fill="#9AB2F1" x="111" y="362" width="116" height="7" rx="3.5"></rect>
        <mask id="mask-4" fill="white">
            <use xlink:href="#path-3"></use>
        </mask>
        <use id="Combined-Shape" stroke="#0041DC" stroke-width="3" fill="#FFFFFF" xlink:href="#path-3"></use>
        <polygon id="Path-3" fill="url(#linearGradient-5)" opacity="0.199537" points="230 255 295 349 295 292.197861"></polygon>
        <g id="Group-3" transform="translate(7.000000, 41.000000)" fill-rule="nonzero">
            <path d="M0,33 C0,51.2253967 14.7746033,66 33,66 C51.2253967,66 66,51.2253967 66,33 C66,14.7746033 51.2253967,0 33,0 C14.7746033,0 0,14.7746033 0,33 Z" id="Path" fill="#658DEA"></path>
            <path d="M33,60 C18.0883118,60 6,47.9116882 6,33 C6,18.0883118 18.0883118,6 33,6 C47.9116882,6 60,18.0883118 60,33 C59.9837966,47.9049714 47.9049714,59.9837966 33,60 Z" id="Path" fill="#FFFFFF"></path>
            <path d="M46.7999567,42.599981 C47.6573919,43.2430585 48.1066175,44.2947238 47.9784146,45.3588246 C47.8502117,46.4229254 47.1640573,47.3377995 46.1784192,47.7588227 C45.1927811,48.1798459 44.0574011,48.0430548 43.1999659,47.3999773 L31.1999969,38.3999842 C30.4445813,37.8334215 30,36.9442573 30,35.9999861 L30,21 C30,19.3431447 31.3431423,18 33,18 C34.6568422,18 35.9999845,19.3431447 35.9999845,21 L35.9999845,34.4999872 L46.7999567,42.599981 Z" id="Path" fill="#658DEA"></path>
        </g>
    </g>
</svg>